:SAMPLES-PER-SECOND 30
:FULLY-SPECIFIED
:DEGREES
1268
root  42.0968 37.9227 3.38652 73.7288 85.3875 77.7563
RightUpLeg  -19.0696 -5.96766 -3.65417
RightLeg  3.41514 4.4057 0.279369
RightFoot  2.02797 -0.371454 3.39861
RightToes  -8.3237e-009 0 -3.6325e-017
Spine  3.11238 -1.34823 -3.43139
Spine1  9.22758 -1.89737 1.2711
HEad  -21.6572 0.310037 -7.42648
LeftShoulder1  -0.400609 4.53128 -32.811
LeftArm  15.33 -14.8705 -47.0606
LeftForeArm  20.1797 -31.0252 -5.6589
LeftHand  -0.0271589 5.34893 2.96669
RightShoulder  -0.842476 -5.82124 29.7418
RightArm  14.3564 -7.75597 44.2857
RightForeArm  24.6833 5.2118 7.19608
RightHand  0.091223 2.69341 1.09129
LeftUpLeg  13.2526 6.16668 -6.24293
LeftLeg  12.3469 4.09998 0.554775
LeftFoot  -20.4695 0.302443 2.26467
LeftToes  -1.18267e-011 3.61711e-011 9.57411e-011
1269
root  43.3942 37.7746 3.47084 83.9257 87.0454 87.894
RightUpLeg  -19.9582 -5.81511 -2.27305
RightLeg  7.96995 2.34069 0.63222
RightFoot  7.6747 -0.0329361 0.428999
RightToes  -8.3237e-009 0 -3.6325e-017
Spine  3.3211 -1.68895 -1.026
Spine1  9.29276 -2.42845 1.97917
HEad  -22.4027 0.645928 -7.84553
LeftShoulder1  -0.47071 4.68673 -33.6572
LeftArm  16.5592 -12.8296 -46.4399
LeftForeArm  19.6859 -31.2261 -5.73576
LeftHand  -0.0305954 5.18164 3.22843
RightShoulder  -0.839395 -5.83149 29.4504
RightArm  14.9959 -5.79535 44.4667
RightForeArm  24.2319 5.0566 7.52372
RightHand  0.0968734 2.96537 1.11631
LeftUpLeg  14.9153 5.83063 -4.3281
LeftLeg  13.3673 3.1279 1.08405
LeftFoot  -21.8005 0.22774 1.0651
LeftToes  -1.18267e-011 3.61711e-011 9.57411e-011
1270
root  44.7724 37.636 3.56478 110.748 89.0407 115.209
RightUpLeg  -20.2898 -5.76772 -0.43631
RightLeg  13.5815 3.19476 1.04041
RightFoot  8.12277 0.108649 -0.317479
RightToes  -8.3237e-009 0 -3.6325e-017
Spine  2.81823 -1.92396 2.39378
Spine1  10.5331 -2.48416 1.35871
HEad  -22.9973 0.95945 -8.15823
LeftShoulder1  -0.409246 4.5264 -33.869
LeftArm  18.1481 -10.6315 -46.4994
LeftForeArm  18.8365 -29.9513 -5.47691
LeftHand  -0.0291184 5.23604 3.22877
RightShoulder  -0.827727 -5.78948 29.5948
RightArm  15.1921 -3.48463 44.6199
RightForeArm  23.2978 5.38873 7.67692
RightHand  0.0430902 2.71527 0.426374
LeftUpLeg  16.1097 4.75076 -2.11618
LeftLeg  16.6385 3.43577 1.66565
LeftFoot  -22.3005 0.0304148 -1.0707
LeftToes  -1.18267e-011 3.61711e-011 9.57411e-011
1271
root  46.1413 37.5434 3.69161 -42.0746 89.3919 -37.4296
RightUpLeg  -20.5094 -4.23496 1.26129
RightLeg  18.6354 2.28832 0.638419
RightFoot  5.22075 0.222788 -1.30511
RightToes  -8.3237e-009 0 -3.6325e-017
Spine  3.19384 -1.7593 5.68693
Spine1  9.91154 -1.86186 0.368737
HEad  -23.2277 1.19853 -8.15881
LeftShoulder1  -0.357698 4.39603 -33.9254
LeftArm  20.4729 -7.14207 -46.5332
LeftForeArm  17.4672 -27.2421 -4.85262
LeftHand  -0.0287281 5.29429 2.39022
RightShoulder  -0.837218 -5.80183 29.8157
RightArm  15.3469 -1.55555 44.7747
RightForeArm  21.6492 5.33338 7.82488
RightHand  -0.000698103 3.22937 -0.235929
LeftUpLeg  15.7776 3.52892 -0.592027
LeftLeg  21.9987 4.31623 2.21392
LeftFoot  -20.8332 -0.288245 -4.97669
LeftToes  -1.18267e-011 3.61711e-011 9.57411e-011
1272
root  47.3626 37.474 3.872 -94.1523 88.6683 -89.5809
RightUpLeg  -20.5672 -3.48454 2.28429
RightLeg  22.6314 1.0417 0.251582
RightFoot  2.42793 0.384576 -3.04344
RightToes  -8.3237e-009 0 -3.6325e-017
Spine  2.72264 -1.79888 6.96994
Spine1  10.5475 -1.83035 1.44689
HEad  -23.2705 1.14293 -7.69971
LeftShoulder1  -0.276519 4.19498 -33.8218
LeftArm  23.0042 -4.22173 -46.8573
LeftForeArm  15.1055 -22.6828 -4.59363
LeftHand  -0.0167774 6.08047 2.33006
RightShoulder  -0.825343 -5.77482 29.7274
RightArm  14.5427 0.860538 45.7704
RightForeArm  22.794 4.92724 7.57401
RightHand  0.0741294 2.72435 0.841612
LeftUpLeg  12.8228 3.27401 1.27674
LeftLeg  30.4107 2.96532 2.2235
LeftFoot  -15.4356 -0.160398 -7.9516
LeftToes  -1.18267e-011 3.61711e-011 9.57411e-011
1273
root  48.4804 37.4555 4.02957 -119.011 87.3827 -114.549
RightUpLeg  -19.8629 -3.73359 3.4794
RightLeg  25.0262 0.0504353 -0.205428
RightFoot  -0.181171 0.380276 -3.87309
RightToes  -8.3237e-009 0 -3.6325e-017
Spine  4.57295 -2.25478 8.55532
Spine1  7.97301 -2.07231 2.73042
HEad  -22.2928 1.72232 -7.5996
LeftShoulder1  -0.498809 4.72692 -34.6085
LeftArm  19.5892 -1.13007 -45.7185
LeftForeArm  19.9422 -17.4503 -7.31766
LeftHand  -0.0271289 5.81187 2.47366
RightShoulder  -0.767637 -5.67043 28.751
RightArm  14.1165 1.84989 47.0501
RightForeArm  22.5435 5.68023 7.40481
RightHand  0.0560323 2.6953 0.589661
LeftUpLeg  7.8691 2.22012 3.31432
LeftLeg  40.5725 1.79173 2.01764
LeftFoot  -6.32758 0.473888 -10.7883
LeftToes  -1.18267e-011 3.61711e-011 9.57411e-011
1274
root  49.5652 37.4903 4.14981 -120.784 86.1575 -116.706
RightUpLeg  -18.873 -4.19654 4.61879
RightLeg  26.0594 -0.299362 -0.400654
RightFoot  -2.69709 0.253349 -3.5842
RightToes  -8.3237e-009 0 -3.6325e-017
Spine  4.20478 -2.11023 11.1713
Spine1  7.99387 -1.52925 2.10455
HEad  -22.6595 0.778887 -7.37701
LeftShoulder1  -0.505991 4.72422 -35.1723
LeftArm  9.26927 -0.133521 -44.677
LeftForeArm  32.6838 -10.72 -10.6754
LeftHand  -0.0526949 7.20363 -0.939856
RightShoulder  -0.68109 -5.48719 27.6394
RightArm  12.9497 3.69607 48.8443
RightForeArm  21.328 6.31004 7.00139
RightHand  0.058101 3.28084 0.564407
LeftUpLeg  1.74734 1.25994 4.91122
LeftLeg  50.7265 0.569857 1.16827
LeftFoot  4.27645 1.04359 -7.94018
LeftToes  -1.18267e-011 3.61711e-011 9.57411e-011
1275
root  50.6205 37.5324 4.27622 -121.476 85.3755 -116.78
RightUpLeg  -16.7105 -4.67086 5.42333
RightLeg  26.8331 -0.473705 -0.493718
RightFoot  -5.00268 0.161723 -3.55017
RightToes  -8.3237e-009 0 -3.6325e-017
Spine  3.81495 -1.79366 14.3917
Spine1  9.45969 -0.21029 -0.553574
HEad  -20.7568 -1.23669 -5.77107
LeftShoulder1  -0.184273 3.96418 -34.0746
LeftArm  0.543649 1.27169 -44.3978
LeftForeArm  42.7041 -5.11632 -11.227
LeftHand  -0.0942601 7.8786 -2.29053
RightShoulder  -0.852077 -5.89186 29.0888
RightArm  14.6034 7.13466 48.7549
RightForeArm  18.1094 7.28427 7.59821
RightHand  -0.0106289 4.10109 -0.414319
LeftUpLeg  -2.73783 0.830728 6.1965
LeftLeg  58.2298 -0.492117 -0.300871
LeftFoot  8.71931 0.665067 -3.93015
LeftToes  -1.18267e-011 3.61711e-011 9.57411e-011
1276
root  51.6775 37.7179 4.41266 -121.085 85.8272 -115.717
RightUpLeg  -13.9049 -4.91218 5.15729
RightLeg  26.4356 -0.147542 -0.297675
RightFoot  -6.55495 0.123695 -4.00285
RightToes  -8.3237e-009 0 -3.6325e-017
Spine  5.42672 -1.621 14.7294
Spine1  8.19233 0.467855 -1.36189
HEad  -19.3585 -1.72252 -4.91163
LeftShoulder1  -0.237627 4.09959 -33.7328
LeftArm  -2.16193 4.63364 -43.2801
LeftForeArm  44.6674 -3.47063 -10.3054
LeftHand  -0.108202 8.32469 -2.35607
RightShoulder  -0.875172 -5.92377 29.5549
RightArm  17.6457 9.93353 48.8456
RightForeArm  17.0476 9.53497 8.07114
RightHand  -0.00302102 3.47304 -0.294189
LeftUpLeg  -6.35331 1.15755 6.26197
LeftLeg  62.2668 -0.761485 -0.969356
LeftFoot  6.42187 0.366706 -2.61087
LeftToes  -1.18267e-011 3.61711e-011 9.57411e-011
1277
root  52.7211 37.9482 4.51534 -118.499 86.6815 -112.977
RightUpLeg  -11.3766 -4.67979 4.53216
RightLeg  25.4142 0.199463 -0.144616
RightFoot  -7.74436 0.0795908 -4.21326
RightToes  -8.3237e-009 0 -3.6325e-017
Spine  5.05803 -0.973387 13.8023
Spine1  8.87626 0.856612 -0.61179
HEad  -19.339 -1.78797 -5.36288
LeftShoulder1  -0.293256 4.22076 -34.7261
LeftArm  -2.90384 6.93825 -41.5565
LeftForeArm  44.6779 -2.88748 -9.82084
LeftHand  -0.118314 8.04013 -3.01019
RightShoulder  -0.648261 -5.37386 27.8864
RightArm  19.8673 13.1195 50.4847
RightForeArm  16.5594 10.6313 8.20821
RightHand  0.0198436 4.53447 -0.0531214
LeftUpLeg  -9.97302 1.6933 5.6736
LeftLeg  63.0763 -0.907131 -1.33517
LeftFoot  5.86741 0.170149 -1.3593
LeftToes  -1.18267e-011 3.61711e-011 9.57411e-011
1278
root  53.743 38.1085 4.59774 -117.416 87.2312 -112.008
RightUpLeg  -9.25266 -5.66392 3.94713
RightLeg  24.5617 1.33373 0.427152
RightFoot  -9.08934 0.0296058 -4.60523
RightToes  -8.3237e-009 0 -3.6325e-017
Spine  5.18088 -0.62734 13.2294
Spine1  8.2319 1.0384 -0.256061
HEad  -18.678 -0.916772 -6.18405
LeftShoulder1  -0.377526 4.41579 -35.2354
LeftArm  -1.59286 9.76248 -39.3681
LeftForeArm  43.6007 -3.81082 -10.3784
LeftHand  -0.15841 8.72039 -3.66455
RightShoulder  -0.455623 -4.88475 26.1854
RightArm  21.9377 15.1935 52.1878
RightForeArm  15.8064 12.1158 7.96204
RightHand  0.00949691 4.67899 -0.188874
LeftUpLeg  -13.5107 1.96869 5.18492
LeftLeg  61.6227 -1.11247 -1.64131
LeftFoot  4.58007 -0.0432682 0.12566
LeftToes  -1.18267e-011 3.61711e-011 9.57411e-011
1279
root  54.776 38.2805 4.67587 -114.749 87.9522 -109.307
RightUpLeg  -6.77634 -6.4058 3.17356
RightLeg  23.3018 2.30211 0.823974
RightFoot  -10.2049 -0.0217063 -4.78381
RightToes  -8.3237e-009 0 -3.6325e-017
Spine  5.32605 -0.135915 13.2298
Spine1  7.65582 1.66014 -1.14869
HEad  -18.0582 -0.684046 -6.37856
LeftShoulder1  -0.387982 4.44147 -35.2044
LeftArm  1.08456 11.8822 -37.3108
LeftForeArm  41.3988 -4.95697 -11.164
LeftHand  -0.129732 8.34065 -3.08828
RightShoulder  -0.487219 -4.98388 26.075
RightArm  24.6811 17.1467 52.561
RightForeArm  12.5099 14.0823 7.47798
RightHand  -0.0365902 4.55889 -0.711217
LeftUpLeg  -16.0084 2.33649 4.4442
LeftLeg  57.3447 -1.64625 -2.26839
LeftFoot  2.56146 -0.154614 1.1284
LeftToes  -1.18267e-011 3.61711e-011 9.57411e-011
1280
root  55.8214 38.4433 4.72936 -106.665 88.5957 -101.318
RightUpLeg  -4.26341 -7.07092 2.36578
RightLeg  21.7303 3.3703 1.20819
RightFoot  -11.158 -0.0669457 -5.12569
RightToes  -8.3237e-009 0 -3.6325e-017
Spine  4.94379 0.346968 13.4307
Spine1  7.57324 2.25902 -2.5119
HEad  -17.6825 -0.666309 -6.50373
LeftShoulder1  -0.3967 4.46354 -35.1605
LeftArm  2.64406 13.9294 -35.8978
LeftForeArm  40.5409 -6.3317 -11.1568
LeftHand  -0.102514 8.35709 -2.09876
RightShoulder  -0.454726 -4.89977 25.6995
RightArm  27.2729 18.2558 52.7274
RightForeArm  8.3484 16.654 6.54861
RightHand  -0.0413448 5.8184 -0.757559
LeftUpLeg  -17.5267 2.6173 3.70149
LeftLeg  50.2955 -1.83377 -1.93782
LeftFoot  1.0056 -0.0820457 0.680698
LeftToes  -1.18267e-011 3.61711e-011 9.57411e-011
1281
root  56.8184 38.5807 4.7656 -87.5181 89.1253 -82.3083
RightUpLeg  -1.86955 -7.4796 1.58609
RightLeg  20.0951 4.40816 1.43309
RightFoot  -11.9018 -0.105777 -5.19735
RightToes  -8.3237e-009 0 -3.6325e-017
Spine  4.76045 0.809316 13.4887
Spine1  7.47807 2.79378 -3.70202
HEad  -17.5655 -0.360878 -6.83136
LeftShoulder1  -0.372826 4.40518 -35.191
LeftArm  4.06864 15.1141 -34.8393
LeftForeArm  38.666 -7.10963 -11.2025
LeftHand  -0.113755 8.26197 -2.38547
RightShoulder  -0.450626 -4.89359 25.544
RightArm  28.5317 19.1937 52.5762
RightForeArm  6.25822 18.8851 5.60065
RightHand  0.021464 6.10725 -0.116028
LeftUpLeg  -17.9838 3.4086 2.9901
LeftLeg  40.721 -1.55519 -1.10293
LeftFoot  -0.40416 0.09055 -0.884473
LeftToes  -1.18267e-011 3.61711e-011 9.57411e-011
1282
root  57.8006 38.6776 4.83561 -56.4349 89.2451 -51.6103
RightUpLeg  0.389699 -7.60476 1.15933
RightLeg  18.0965 5.00415 1.50025
RightFoot  -12.6416 -0.143312 -5.09446
RightToes  -8.3237e-009 0 -3.6325e-017
Spine  4.19429 1.2397 12.9563
Spine1  7.64024 3.04927 -4.17503
HEad  -18.3485 -0.481969 -6.93766
LeftShoulder1  -0.397705 4.45866 -35.4626
LeftArm  2.56239 16.0234 -34.3971
LeftForeArm  37.7685 -6.73302 -10.8723
LeftHand  -0.0372766 6.44536 -0.54325
RightShoulder  -0.433768 -4.84759 25.3703
RightArm  28.9496 19.7808 52.5901
RightForeArm  5.98526 20.6763 4.97501
RightHand  -0.0121648 5.88768 -0.459582
LeftUpLeg  -17.6608 4.93386 2.45989
LeftLeg  28.9286 -0.779026 -0.0624341
LeftFoot  0.206979 0.319275 -3.17924
LeftToes  -1.18267e-011 3.61711e-011 9.57411e-011
